<svg width="58" height="58" viewBox="0 0 58 58" fill="none" xmlns="http://www.w3.org/2000/svg">
<path d="M28.5005 44.2507L36.1378 48.0356C37.6994 48.5416 39.3655 47.6654 39.8937 46.0605C40.3519 44.6686 39.8122 43.1338 38.5975 42.3737L28.5565 36.0904C20.4102 30.707 12.9597 35.4124 12.9597 35.4124H9.82812V47.709H12.9597L23.7145 53.6936C27.6869 55.701 32.7721 56.5707 37.106 55.6055L53.9632 51.8224C55.5426 51.2548 56.4434 49.6716 55.9429 47.8394C55.9429 47.8394 55.3601 45.4382 52.437 45.592L39.5107 46.9382" stroke="#1D252D" stroke-width="2.4" stroke-miterlimit="10" stroke-linecap="round" stroke-linejoin="round"/>
<path d="M1.2002 46.8143V33.7899C1.2002 33.2894 1.70183 32.8837 2.32059 32.8837H8.70644C9.32521 32.8837 9.82684 33.2894 9.82684 33.7899V48.7418C9.82684 49.2423 9.32521 49.648 8.70644 49.648H2.32059C1.70183 49.648 1.2002 49.2423 1.2002 48.7418V46.5346" stroke="#1D252D" stroke-width="2.4" stroke-miterlimit="10" stroke-linecap="round" stroke-linejoin="round"/>
<path d="M18.6606 33.5965V31.4127C18.6606 26.7948 20.6502 22.4179 24.086 19.4776L28.5312 15.6719H40.5969L45.0421 19.4776C48.478 22.4179 50.4675 26.7948 50.4675 31.4127V38.9465C50.4675 42.4615 48.1974 45.4261 45.0969 46.3552C45.0958 46.3564 45.0958 46.3564 45.0946 46.3564H45.0935H45.0924" stroke="#1D252D" stroke-width="2.4" stroke-miterlimit="10" stroke-linecap="round" stroke-linejoin="round"/>
<path d="M40.0265 15.6717H29.1051C27.6685 15.6717 26.5039 14.4647 26.5039 12.9756C26.5039 11.4866 27.6685 10.2795 29.1051 10.2795H40.0265C41.4631 10.2795 42.6276 11.4866 42.6276 12.9756C42.6276 14.4647 41.4631 15.6717 40.0265 15.6717Z" stroke="#1D252D" stroke-width="2.4" stroke-miterlimit="10" stroke-linecap="round" stroke-linejoin="round"/>
<path d="M40.5977 10.2802H28.5325L25.7255 4.91197C25.3219 4.14005 25.8611 3.20142 26.7082 3.20142H42.4221C43.2693 3.20142 43.8084 4.14005 43.4048 4.91197L40.5977 10.2802Z" stroke="#1D252D" stroke-width="2.4" stroke-miterlimit="10" stroke-linecap="round" stroke-linejoin="round"/>
<path d="M36.8227 24.0229C36.8227 24.0229 35.4072 22.8087 33.6926 23.3441C32.1182 23.8357 31.7272 26.0685 32.7971 26.9382C33.4114 27.4376 34.3357 27.8482 35.5814 28.3047C38.3696 29.3263 37.3389 33.4018 34.5027 33.4214C33.3959 33.429 32.8784 33.3562 31.9062 32.697" stroke="#1D252D" stroke-width="2.4" stroke-miterlimit="10" stroke-linecap="round" stroke-linejoin="round"/>
<path d="M34.5034 34.9087V33.4211" stroke="#1D252D" stroke-width="2.4" stroke-miterlimit="10" stroke-linecap="round" stroke-linejoin="round"/>
<path d="M34.5034 23.1974V21.8185" stroke="#1D252D" stroke-width="2.4" stroke-miterlimit="10" stroke-linecap="round" stroke-linejoin="round"/>
</svg>
