<svg width="57" height="57" viewBox="0 0 57 57" fill="none" xmlns="http://www.w3.org/2000/svg">
<mask id="path-1-outside-1_14_1337" maskUnits="userSpaceOnUse" x="19.5396" y="-0.172607" width="37" height="37" fill="black">
<rect fill="white" x="19.5396" y="-0.172607" width="37" height="37"/>
<path d="M35.1806 0.232048C35.1806 0.348267 34.3302 5.43389 34.3062 5.45794C34.2901 5.47397 34.1176 5.5421 33.9171 5.61423C33.7205 5.68236 33.3314 5.83866 33.0546 5.95888C32.7779 6.07911 32.5051 6.19533 32.4489 6.21938C32.3527 6.26346 32.2123 6.17129 30.1826 4.71653L28.0205 3.16961L25.8023 5.38179C24.5468 6.63616 23.5961 7.61402 23.6082 7.64608C23.6162 7.67413 24.2941 8.64797 25.1124 9.81818C25.9267 10.9844 26.5965 11.9542 26.5965 11.9703C26.5965 11.9903 26.4922 12.2388 26.3639 12.5233C26.2355 12.8118 26.051 13.2527 25.9587 13.5092L25.7863 13.974L23.1629 14.4069L20.5396 14.8397V17.9776V21.1156L20.7521 21.1556C21.061 21.2198 25.7141 22.0413 25.7542 22.0413C25.7702 22.0413 25.8264 22.1615 25.8785 22.3098C25.9948 22.6705 26.3238 23.464 26.4802 23.7686C26.5444 23.9048 26.5925 24.0371 26.5805 24.0651C26.5725 24.0932 25.8785 25.071 25.0402 26.2413L23.5159 28.3653L25.7301 30.5735C26.9455 31.7877 27.9563 32.7816 27.9724 32.7816C27.9925 32.7816 28.9592 32.1124 30.1264 31.2988C31.2937 30.4813 32.2765 29.804 32.3126 29.792C32.3487 29.7759 32.5613 29.8521 32.826 29.9763C33.0707 30.0965 33.5079 30.2769 33.7967 30.3811L34.3182 30.5694L34.7474 33.1503C34.9841 34.569 35.1766 35.7512 35.1766 35.7753C35.1806 35.8154 35.8385 35.8274 38.3254 35.8274H41.4702L41.4903 35.7352C41.5023 35.6871 41.7149 34.5009 41.9636 33.1022C42.2083 31.7036 42.4129 30.5574 42.4169 30.5574C42.9825 30.353 43.5681 30.1206 43.9211 29.9523L44.3824 29.7359L44.5228 29.828C44.603 29.8801 45.5858 30.5654 46.7049 31.3549C47.8241 32.1404 48.7547 32.7816 48.7707 32.7816C48.7868 32.7816 49.7976 31.7837 51.017 30.5654L53.2312 28.3533L52.1161 26.8103C51.5064 25.9607 50.8004 24.9829 50.5517 24.6382L50.0944 24.005L50.307 23.5562C50.4234 23.3077 50.6039 22.8709 50.7082 22.5823C50.8124 22.2978 50.9127 22.0573 50.9328 22.0533C50.9488 22.0493 52.1041 21.8449 53.492 21.6005C54.8839 21.356 56.0592 21.1516 56.1113 21.1396L56.1996 21.1196V17.9776V14.8397L54.1658 14.5071C53.0427 14.3267 51.8514 14.1263 51.5144 14.0702L50.8967 13.966L50.6881 13.405C50.5718 13.0964 50.3913 12.6636 50.287 12.4432C50.1827 12.2267 50.1105 12.0224 50.1185 11.9943C50.1305 11.9662 50.8165 10.9804 51.6468 9.80215C52.4731 8.61992 53.151 7.64207 53.151 7.62604C53.151 7.606 52.1522 6.6001 50.9368 5.3858L48.7186 3.17361L46.6929 4.63237C45.5778 5.4379 44.603 6.13923 44.5228 6.19533L44.3784 6.29552L43.885 6.0711C43.6163 5.94686 43.175 5.76251 42.9063 5.66232C42.6415 5.56213 42.4169 5.47797 42.4129 5.47397C42.4089 5.46996 42.2043 4.3318 41.9636 2.94518C41.7189 1.55455 41.5063 0.372314 41.4943 0.308193L41.4702 0.199989H38.3254C36.5966 0.199989 35.1806 0.216019 35.1806 0.232048ZM39.3523 2.78087C39.3523 2.81694 40.1586 7.38959 40.1666 7.39761C40.1706 7.40161 40.4554 7.47776 40.7964 7.56993C42.1281 7.91859 42.9664 8.27126 44.1096 8.96056C44.4065 9.1369 44.6311 9.24911 44.6592 9.22907C44.6873 9.21304 45.5417 8.59988 46.5605 7.86649C47.5794 7.1331 48.4298 6.53197 48.4458 6.53197C48.4659 6.53197 48.7908 6.84456 49.1678 7.22127L49.8578 7.91458L48.4939 9.85425L47.1341 11.7939L47.2184 11.9382C48.1129 13.433 48.526 14.3948 48.8429 15.7254C48.9352 16.1021 48.9753 16.2063 49.0395 16.2343C49.0836 16.2504 50.1265 16.4307 51.362 16.6311C52.5934 16.8315 53.6163 17.0038 53.6364 17.0158C53.6805 17.0439 53.6845 18.9434 53.6404 18.9715C53.6203 18.9835 52.5694 19.1759 51.3018 19.3963C50.0343 19.6207 48.9873 19.8171 48.9753 19.8291C48.9633 19.8452 48.883 20.1257 48.7988 20.4583C48.4939 21.6686 48.1008 22.6264 47.459 23.6964L47.1301 24.2495L47.5673 24.8586C47.808 25.1953 48.4338 26.0609 48.9552 26.7863L49.9059 28.1088L49.2079 28.8061L48.506 29.5074L46.5565 28.1409L44.607 26.7703L44.1498 27.0468C42.9143 27.7962 42.0479 28.1569 40.7161 28.4935C40.4394 28.5616 40.2027 28.6298 40.1866 28.6458C40.1666 28.6699 39.3523 33.1744 39.3523 33.2746C39.3523 33.2906 38.903 33.3026 38.3575 33.3026H37.3627L36.9937 31.0864C36.7891 29.8721 36.6086 28.8221 36.5926 28.758C36.5645 28.6458 36.5404 28.6338 36.1834 28.5456C34.7073 28.1809 33.8449 27.8323 32.6254 27.1069C32.3487 26.9426 32.12 26.8103 32.112 26.8103C32.104 26.8103 31.2335 27.4155 30.1786 28.1529L28.2612 29.4954L27.5713 28.8021C27.1902 28.4254 26.8773 28.0968 26.8773 28.0807C26.8773 28.0607 27.463 27.2311 28.177 26.2372C28.891 25.2394 29.4967 24.3898 29.5207 24.3457C29.5649 24.2735 29.5288 24.1934 29.2199 23.6844C28.5219 22.5302 28.1409 21.5804 27.7799 20.0856C27.7438 19.9293 27.6956 19.7971 27.6756 19.7971C27.6395 19.7971 23.4477 19.0597 23.2191 19.0116L23.1068 18.9875V17.9937V16.9998L23.2191 16.9757C23.2792 16.9637 24.3101 16.7914 25.5135 16.591C26.7129 16.3906 27.6996 16.2223 27.7077 16.2183C27.7117 16.2103 27.7999 15.8977 27.8962 15.521C28.2532 14.1824 28.5981 13.3729 29.3402 12.1466C29.4686 11.9422 29.5608 11.7498 29.5488 11.7258C29.5408 11.7017 28.9351 10.8321 28.2091 9.79815L26.8813 7.91458L27.5713 7.22127C27.9523 6.84456 28.2772 6.53197 28.2973 6.53197C28.3134 6.53197 29.1718 7.1331 30.1986 7.86248C31.2255 8.59587 32.0799 9.20502 32.1 9.20903C32.12 9.21705 32.4169 9.05674 32.7658 8.85236C33.8368 8.21515 34.6551 7.88252 35.9347 7.55791L36.6006 7.38959L36.9335 5.34572C37.114 4.2236 37.2825 3.18563 37.3106 3.03335L37.3547 2.76484H38.3535C38.903 2.76484 39.3523 2.77285 39.3523 2.78087Z"/>
</mask>
<path d="M35.1806 0.232048C35.1806 0.348267 34.3302 5.43389 34.3062 5.45794C34.2901 5.47397 34.1176 5.5421 33.9171 5.61423C33.7205 5.68236 33.3314 5.83866 33.0546 5.95888C32.7779 6.07911 32.5051 6.19533 32.4489 6.21938C32.3527 6.26346 32.2123 6.17129 30.1826 4.71653L28.0205 3.16961L25.8023 5.38179C24.5468 6.63616 23.5961 7.61402 23.6082 7.64608C23.6162 7.67413 24.2941 8.64797 25.1124 9.81818C25.9267 10.9844 26.5965 11.9542 26.5965 11.9703C26.5965 11.9903 26.4922 12.2388 26.3639 12.5233C26.2355 12.8118 26.051 13.2527 25.9587 13.5092L25.7863 13.974L23.1629 14.4069L20.5396 14.8397V17.9776V21.1156L20.7521 21.1556C21.061 21.2198 25.7141 22.0413 25.7542 22.0413C25.7702 22.0413 25.8264 22.1615 25.8785 22.3098C25.9948 22.6705 26.3238 23.464 26.4802 23.7686C26.5444 23.9048 26.5925 24.0371 26.5805 24.0651C26.5725 24.0932 25.8785 25.071 25.0402 26.2413L23.5159 28.3653L25.7301 30.5735C26.9455 31.7877 27.9563 32.7816 27.9724 32.7816C27.9925 32.7816 28.9592 32.1124 30.1264 31.2988C31.2937 30.4813 32.2765 29.804 32.3126 29.792C32.3487 29.7759 32.5613 29.8521 32.826 29.9763C33.0707 30.0965 33.5079 30.2769 33.7967 30.3811L34.3182 30.5694L34.7474 33.1503C34.9841 34.569 35.1766 35.7512 35.1766 35.7753C35.1806 35.8154 35.8385 35.8274 38.3254 35.8274H41.4702L41.4903 35.7352C41.5023 35.6871 41.7149 34.5009 41.9636 33.1022C42.2083 31.7036 42.4129 30.5574 42.4169 30.5574C42.9825 30.353 43.5681 30.1206 43.9211 29.9523L44.3824 29.7359L44.5228 29.828C44.603 29.8801 45.5858 30.5654 46.7049 31.3549C47.8241 32.1404 48.7547 32.7816 48.7707 32.7816C48.7868 32.7816 49.7976 31.7837 51.017 30.5654L53.2312 28.3533L52.1161 26.8103C51.5064 25.9607 50.8004 24.9829 50.5517 24.6382L50.0944 24.005L50.307 23.5562C50.4234 23.3077 50.6039 22.8709 50.7082 22.5823C50.8124 22.2978 50.9127 22.0573 50.9328 22.0533C50.9488 22.0493 52.1041 21.8449 53.492 21.6005C54.8839 21.356 56.0592 21.1516 56.1113 21.1396L56.1996 21.1196V17.9776V14.8397L54.1658 14.5071C53.0427 14.3267 51.8514 14.1263 51.5144 14.0702L50.8967 13.966L50.6881 13.405C50.5718 13.0964 50.3913 12.6636 50.287 12.4432C50.1827 12.2267 50.1105 12.0224 50.1185 11.9943C50.1305 11.9662 50.8165 10.9804 51.6468 9.80215C52.4731 8.61992 53.151 7.64207 53.151 7.62604C53.151 7.606 52.1522 6.6001 50.9368 5.3858L48.7186 3.17361L46.6929 4.63237C45.5778 5.4379 44.603 6.13923 44.5228 6.19533L44.3784 6.29552L43.885 6.0711C43.6163 5.94686 43.175 5.76251 42.9063 5.66232C42.6415 5.56213 42.4169 5.47797 42.4129 5.47397C42.4089 5.46996 42.2043 4.3318 41.9636 2.94518C41.7189 1.55455 41.5063 0.372314 41.4943 0.308193L41.4702 0.199989H38.3254C36.5966 0.199989 35.1806 0.216019 35.1806 0.232048ZM39.3523 2.78087C39.3523 2.81694 40.1586 7.38959 40.1666 7.39761C40.1706 7.40161 40.4554 7.47776 40.7964 7.56993C42.1281 7.91859 42.9664 8.27126 44.1096 8.96056C44.4065 9.1369 44.6311 9.24911 44.6592 9.22907C44.6873 9.21304 45.5417 8.59988 46.5605 7.86649C47.5794 7.1331 48.4298 6.53197 48.4458 6.53197C48.4659 6.53197 48.7908 6.84456 49.1678 7.22127L49.8578 7.91458L48.4939 9.85425L47.1341 11.7939L47.2184 11.9382C48.1129 13.433 48.526 14.3948 48.8429 15.7254C48.9352 16.1021 48.9753 16.2063 49.0395 16.2343C49.0836 16.2504 50.1265 16.4307 51.362 16.6311C52.5934 16.8315 53.6163 17.0038 53.6364 17.0158C53.6805 17.0439 53.6845 18.9434 53.6404 18.9715C53.6203 18.9835 52.5694 19.1759 51.3018 19.3963C50.0343 19.6207 48.9873 19.8171 48.9753 19.8291C48.9633 19.8452 48.883 20.1257 48.7988 20.4583C48.4939 21.6686 48.1008 22.6264 47.459 23.6964L47.1301 24.2495L47.5673 24.8586C47.808 25.1953 48.4338 26.0609 48.9552 26.7863L49.9059 28.1088L49.2079 28.8061L48.506 29.5074L46.5565 28.1409L44.607 26.7703L44.1498 27.0468C42.9143 27.7962 42.0479 28.1569 40.7161 28.4935C40.4394 28.5616 40.2027 28.6298 40.1866 28.6458C40.1666 28.6699 39.3523 33.1744 39.3523 33.2746C39.3523 33.2906 38.903 33.3026 38.3575 33.3026H37.3627L36.9937 31.0864C36.7891 29.8721 36.6086 28.8221 36.5926 28.758C36.5645 28.6458 36.5404 28.6338 36.1834 28.5456C34.7073 28.1809 33.8449 27.8323 32.6254 27.1069C32.3487 26.9426 32.12 26.8103 32.112 26.8103C32.104 26.8103 31.2335 27.4155 30.1786 28.1529L28.2612 29.4954L27.5713 28.8021C27.1902 28.4254 26.8773 28.0968 26.8773 28.0807C26.8773 28.0607 27.463 27.2311 28.177 26.2372C28.891 25.2394 29.4967 24.3898 29.5207 24.3457C29.5649 24.2735 29.5288 24.1934 29.2199 23.6844C28.5219 22.5302 28.1409 21.5804 27.7799 20.0856C27.7438 19.9293 27.6956 19.7971 27.6756 19.7971C27.6395 19.7971 23.4477 19.0597 23.2191 19.0116L23.1068 18.9875V17.9937V16.9998L23.2191 16.9757C23.2792 16.9637 24.3101 16.7914 25.5135 16.591C26.7129 16.3906 27.6996 16.2223 27.7077 16.2183C27.7117 16.2103 27.7999 15.8977 27.8962 15.521C28.2532 14.1824 28.5981 13.3729 29.3402 12.1466C29.4686 11.9422 29.5608 11.7498 29.5488 11.7258C29.5408 11.7017 28.9351 10.8321 28.2091 9.79815L26.8813 7.91458L27.5713 7.22127C27.9523 6.84456 28.2772 6.53197 28.2973 6.53197C28.3134 6.53197 29.1718 7.1331 30.1986 7.86248C31.2255 8.59587 32.0799 9.20502 32.1 9.20903C32.12 9.21705 32.4169 9.05674 32.7658 8.85236C33.8368 8.21515 34.6551 7.88252 35.9347 7.55791L36.6006 7.38959L36.9335 5.34572C37.114 4.2236 37.2825 3.18563 37.3106 3.03335L37.3547 2.76484H38.3535C38.903 2.76484 39.3523 2.77285 39.3523 2.78087Z" fill="#1D252D"/>
<path d="M35.1806 0.232048C35.1806 0.348267 34.3302 5.43389 34.3062 5.45794C34.2901 5.47397 34.1176 5.5421 33.9171 5.61423C33.7205 5.68236 33.3314 5.83866 33.0546 5.95888C32.7779 6.07911 32.5051 6.19533 32.4489 6.21938C32.3527 6.26346 32.2123 6.17129 30.1826 4.71653L28.0205 3.16961L25.8023 5.38179C24.5468 6.63616 23.5961 7.61402 23.6082 7.64608C23.6162 7.67413 24.2941 8.64797 25.1124 9.81818C25.9267 10.9844 26.5965 11.9542 26.5965 11.9703C26.5965 11.9903 26.4922 12.2388 26.3639 12.5233C26.2355 12.8118 26.051 13.2527 25.9587 13.5092L25.7863 13.974L23.1629 14.4069L20.5396 14.8397V17.9776V21.1156L20.7521 21.1556C21.061 21.2198 25.7141 22.0413 25.7542 22.0413C25.7702 22.0413 25.8264 22.1615 25.8785 22.3098C25.9948 22.6705 26.3238 23.464 26.4802 23.7686C26.5444 23.9048 26.5925 24.0371 26.5805 24.0651C26.5725 24.0932 25.8785 25.071 25.0402 26.2413L23.5159 28.3653L25.7301 30.5735C26.9455 31.7877 27.9563 32.7816 27.9724 32.7816C27.9925 32.7816 28.9592 32.1124 30.1264 31.2988C31.2937 30.4813 32.2765 29.804 32.3126 29.792C32.3487 29.7759 32.5613 29.8521 32.826 29.9763C33.0707 30.0965 33.5079 30.2769 33.7967 30.3811L34.3182 30.5694L34.7474 33.1503C34.9841 34.569 35.1766 35.7512 35.1766 35.7753C35.1806 35.8154 35.8385 35.8274 38.3254 35.8274H41.4702L41.4903 35.7352C41.5023 35.6871 41.7149 34.5009 41.9636 33.1022C42.2083 31.7036 42.4129 30.5574 42.4169 30.5574C42.9825 30.353 43.5681 30.1206 43.9211 29.9523L44.3824 29.7359L44.5228 29.828C44.603 29.8801 45.5858 30.5654 46.7049 31.3549C47.8241 32.1404 48.7547 32.7816 48.7707 32.7816C48.7868 32.7816 49.7976 31.7837 51.017 30.5654L53.2312 28.3533L52.1161 26.8103C51.5064 25.9607 50.8004 24.9829 50.5517 24.6382L50.0944 24.005L50.307 23.5562C50.4234 23.3077 50.6039 22.8709 50.7082 22.5823C50.8124 22.2978 50.9127 22.0573 50.9328 22.0533C50.9488 22.0493 52.1041 21.8449 53.492 21.6005C54.8839 21.356 56.0592 21.1516 56.1113 21.1396L56.1996 21.1196V17.9776V14.8397L54.1658 14.5071C53.0427 14.3267 51.8514 14.1263 51.5144 14.0702L50.8967 13.966L50.6881 13.405C50.5718 13.0964 50.3913 12.6636 50.287 12.4432C50.1827 12.2267 50.1105 12.0224 50.1185 11.9943C50.1305 11.9662 50.8165 10.9804 51.6468 9.80215C52.4731 8.61992 53.151 7.64207 53.151 7.62604C53.151 7.606 52.1522 6.6001 50.9368 5.3858L48.7186 3.17361L46.6929 4.63237C45.5778 5.4379 44.603 6.13923 44.5228 6.19533L44.3784 6.29552L43.885 6.0711C43.6163 5.94686 43.175 5.76251 42.9063 5.66232C42.6415 5.56213 42.4169 5.47797 42.4129 5.47397C42.4089 5.46996 42.2043 4.3318 41.9636 2.94518C41.7189 1.55455 41.5063 0.372314 41.4943 0.308193L41.4702 0.199989H38.3254C36.5966 0.199989 35.1806 0.216019 35.1806 0.232048ZM39.3523 2.78087C39.3523 2.81694 40.1586 7.38959 40.1666 7.39761C40.1706 7.40161 40.4554 7.47776 40.7964 7.56993C42.1281 7.91859 42.9664 8.27126 44.1096 8.96056C44.4065 9.1369 44.6311 9.24911 44.6592 9.22907C44.6873 9.21304 45.5417 8.59988 46.5605 7.86649C47.5794 7.1331 48.4298 6.53197 48.4458 6.53197C48.4659 6.53197 48.7908 6.84456 49.1678 7.22127L49.8578 7.91458L48.4939 9.85425L47.1341 11.7939L47.2184 11.9382C48.1129 13.433 48.526 14.3948 48.8429 15.7254C48.9352 16.1021 48.9753 16.2063 49.0395 16.2343C49.0836 16.2504 50.1265 16.4307 51.362 16.6311C52.5934 16.8315 53.6163 17.0038 53.6364 17.0158C53.6805 17.0439 53.6845 18.9434 53.6404 18.9715C53.6203 18.9835 52.5694 19.1759 51.3018 19.3963C50.0343 19.6207 48.9873 19.8171 48.9753 19.8291C48.9633 19.8452 48.883 20.1257 48.7988 20.4583C48.4939 21.6686 48.1008 22.6264 47.459 23.6964L47.1301 24.2495L47.5673 24.8586C47.808 25.1953 48.4338 26.0609 48.9552 26.7863L49.9059 28.1088L49.2079 28.8061L48.506 29.5074L46.5565 28.1409L44.607 26.7703L44.1498 27.0468C42.9143 27.7962 42.0479 28.1569 40.7161 28.4935C40.4394 28.5616 40.2027 28.6298 40.1866 28.6458C40.1666 28.6699 39.3523 33.1744 39.3523 33.2746C39.3523 33.2906 38.903 33.3026 38.3575 33.3026H37.3627L36.9937 31.0864C36.7891 29.8721 36.6086 28.8221 36.5926 28.758C36.5645 28.6458 36.5404 28.6338 36.1834 28.5456C34.7073 28.1809 33.8449 27.8323 32.6254 27.1069C32.3487 26.9426 32.12 26.8103 32.112 26.8103C32.104 26.8103 31.2335 27.4155 30.1786 28.1529L28.2612 29.4954L27.5713 28.8021C27.1902 28.4254 26.8773 28.0968 26.8773 28.0807C26.8773 28.0607 27.463 27.2311 28.177 26.2372C28.891 25.2394 29.4967 24.3898 29.5207 24.3457C29.5649 24.2735 29.5288 24.1934 29.2199 23.6844C28.5219 22.5302 28.1409 21.5804 27.7799 20.0856C27.7438 19.9293 27.6956 19.7971 27.6756 19.7971C27.6395 19.7971 23.4477 19.0597 23.2191 19.0116L23.1068 18.9875V17.9937V16.9998L23.2191 16.9757C23.2792 16.9637 24.3101 16.7914 25.5135 16.591C26.7129 16.3906 27.6996 16.2223 27.7077 16.2183C27.7117 16.2103 27.7999 15.8977 27.8962 15.521C28.2532 14.1824 28.5981 13.3729 29.3402 12.1466C29.4686 11.9422 29.5608 11.7498 29.5488 11.7258C29.5408 11.7017 28.9351 10.8321 28.2091 9.79815L26.8813 7.91458L27.5713 7.22127C27.9523 6.84456 28.2772 6.53197 28.2973 6.53197C28.3134 6.53197 29.1718 7.1331 30.1986 7.86248C31.2255 8.59587 32.0799 9.20502 32.1 9.20903C32.12 9.21705 32.4169 9.05674 32.7658 8.85236C33.8368 8.21515 34.6551 7.88252 35.9347 7.55791L36.6006 7.38959L36.9335 5.34572C37.114 4.2236 37.2825 3.18563 37.3106 3.03335L37.3547 2.76484H38.3535C38.903 2.76484 39.3523 2.77285 39.3523 2.78087Z" stroke="#1D252D" stroke-width="0.4" mask="url(#path-1-outside-1_14_1337)"/>
<path d="M38.3706 24.4414C39.1294 24.4414 39.3198 24.4304 39.6685 24.3516C41.654 23.9084 43.2595 22.6751 44.1519 20.9004C44.5438 20.1173 44.7403 19.4311 44.8022 18.5752L44.8208 18.1973V18.1963C44.8329 17.608 44.8243 17.4041 44.7505 16.9863C44.2293 13.9278 41.6523 11.6775 38.606 11.5693L38.3091 11.5654C38.0757 11.5695 37.7654 11.5855 37.6147 11.6064V11.6074C36.218 11.7868 35.0484 12.3312 34.0259 13.2764L33.8237 13.4707C33.0067 14.2911 32.4554 15.2074 32.1655 16.2471L32.0454 16.707C32.0142 16.8448 31.9916 16.972 31.9751 17.1035C31.9421 17.3659 31.935 17.6433 31.937 18.0547C31.937 18.6859 31.9533 18.8989 32.0317 19.2578C32.5775 21.8197 34.4432 23.7332 36.9839 24.3271L37.2769 24.3906C37.364 24.4067 37.4462 24.4182 37.5405 24.4258C37.7264 24.4407 37.9591 24.4414 38.3706 24.4414ZM41.9175 19.1426C41.2146 21.3888 38.5895 22.4127 36.5181 21.2451C36.0993 21.0087 35.5652 20.5063 35.2847 20.0859L35.2837 20.0869C33.9203 18.0375 34.8877 15.2391 37.2183 14.4902C37.7877 14.3071 38.1944 14.2755 38.9341 14.3506L39.1802 14.3945C39.4538 14.4582 39.7924 14.5758 40.0513 14.7051C41.6205 15.4873 42.4148 17.2806 41.9653 18.9785L41.9175 19.1426Z" fill="#1D252D" stroke="#1D252D" stroke-width="0.2"/>
<path d="M20.6406 48.4714H18.6875L16.834 48.4646C16.2323 48.461 15.6593 48.4564 15.1553 48.4509C14.1483 48.4399 13.4227 48.4263 13.2793 48.4128C13.1526 48.3975 12.8979 48.3462 12.7148 48.2917L12.7139 48.2908C11.301 47.8801 10.1306 46.662 9.74609 45.1882V45.1853C9.74609 45.1853 9.74475 45.1823 9.74316 45.1746C9.74167 45.1673 9.73952 45.1576 9.7373 45.1453C9.73283 45.1204 9.72754 45.0862 9.7207 45.0437C9.70702 44.9585 9.689 44.8394 9.66699 44.6912C9.623 44.3948 9.56308 43.9808 9.49219 43.4792C9.35032 42.4755 9.16345 41.1216 8.96289 39.6609C8.76437 38.2024 8.58256 36.8752 8.4502 35.9119C8.38401 35.4302 8.32961 35.0388 8.29199 34.7683C8.27325 34.6335 8.25919 34.5284 8.24902 34.4568C8.24399 34.4213 8.24007 34.3935 8.2373 34.3748C8.23593 34.3655 8.23424 34.3576 8.2334 34.3523C8.23299 34.3498 8.23283 34.3468 8.23242 34.3445C8.23223 34.3434 8.23189 34.3416 8.23145 34.3396C8.23124 34.3387 8.2304 34.3359 8.22949 34.3328C8.22892 34.3309 8.22758 34.3267 8.22656 34.324C8.22429 34.3187 8.21371 34.3009 8.2041 34.2898C8.20052 34.2864 8.1945 34.2816 8.19238 34.28C8.19121 34.2792 8.18953 34.2778 8.18848 34.2771C8.18662 34.2759 8.18427 34.2746 8.18359 34.2742C8.18226 34.2734 8.18125 34.2725 8.18066 34.2722C8.17923 34.2714 8.17712 34.271 8.17578 34.2703C8.17302 34.2688 8.16946 34.2667 8.16504 34.2644C8.15579 34.2597 8.14232 34.2527 8.125 34.2439C8.09002 34.2262 8.03837 34.1998 7.97266 34.1667C7.84124 34.1007 7.65145 34.0063 7.41797 33.8894C6.9506 33.6554 6.30667 33.3329 5.59863 32.9802V32.9812C4.63807 32.5004 3.98944 32.1718 3.57129 31.9519C3.36206 31.8419 3.21147 31.7593 3.10938 31.699C3.05847 31.6689 3.02066 31.6453 2.99414 31.6267C2.96554 31.6067 2.95703 31.5974 2.95703 31.5974L2.95508 31.5955C2.8416 31.4606 2.79332 31.2975 2.81641 31.1433L2.83008 31.0779L2.83105 31.0759V31.0769C2.83338 31.0717 2.83767 31.0637 2.84277 31.0535C2.85291 31.0331 2.86745 31.0047 2.88672 30.9685C2.92542 30.8958 2.98138 30.7934 3.05273 30.6648C3.19536 30.4078 3.39887 30.0468 3.64844 29.6082C4.14763 28.7309 4.83023 27.5437 5.57617 26.2595L8.28809 21.5906L8.29883 21.573L8.30078 21.5525L8.37305 20.9353V20.9343C8.70122 18.0395 9.34987 15.2798 10.2041 13.1541C10.4991 12.4213 11.1376 11.1355 11.5195 10.5115H11.5205C13.0751 7.9548 15.0979 6.1049 17.7148 4.85522C19.1855 4.15441 20.7776 3.65983 22.7158 3.30444C23.1845 3.21875 23.4649 3.15959 23.6611 3.08276C23.8659 3.00259 23.9795 2.90279 24.1191 2.74878C24.2418 2.61569 24.33 2.4831 24.3867 2.33472C24.4432 2.18696 24.4667 2.02858 24.4668 1.84448L24.4648 1.67749C24.462 1.62746 24.4567 1.5819 24.4482 1.53784C24.4311 1.44855 24.4012 1.36999 24.3574 1.27612C24.2153 0.970611 23.9812 0.735759 23.6816 0.601318L23.6807 0.602295C23.5068 0.523097 23.3495 0.48164 23.1289 0.482178C22.9132 0.48274 22.6372 0.522341 22.2266 0.598389C18.2612 1.33444 15.1071 2.77588 12.5322 5.03784C8.83358 8.28129 6.59612 13.2171 5.75586 19.9246V19.9255L5.66992 20.6257L3.05273 25.1335C2.33074 26.3778 1.66569 27.5299 1.17578 28.3835C0.930824 28.8104 0.72975 29.1629 0.586914 29.4148C0.51551 29.5407 0.458443 29.6418 0.417969 29.7146C0.379188 29.7843 0.35264 29.8343 0.344727 29.8523L0.34375 29.8533C-0.0295325 30.7279 0.0293801 31.8848 0.499023 32.7869L0.587891 32.9441C0.784008 33.2652 1.08991 33.6221 1.36914 33.8533L1.50586 33.9578C1.53841 33.9808 1.62543 34.0297 1.74512 34.0945C1.87018 34.1622 2.03923 34.2519 2.23926 34.3562C2.63939 34.5649 3.16671 34.8343 3.72461 35.115L5.70703 36.114L6.3252 40.6697C6.66976 43.1995 6.98743 45.4256 7.02441 45.6062L7.10645 45.9382C7.32397 46.7261 7.72992 47.605 8.17188 48.2283C8.59178 48.8189 9.44337 49.6492 10.0156 50.0291C10.7882 50.5409 11.6018 50.8828 12.5361 51.0818L12.6719 51.1091C12.9907 51.1657 13.4037 51.1704 15.4775 51.1843L17.9131 51.2V56.28L18.0107 56.282L18.6445 56.2937C18.9911 56.3018 19.5626 56.3018 19.9131 56.2937L19.9121 56.2927L20.542 56.282L20.6406 56.28V48.4714Z" fill="#1D252D" stroke="#1D252D" stroke-width="0.2"/>
<path d="M43.585 51.866C43.585 49.4025 43.6013 47.3033 43.625 46.9753C43.8443 43.8243 44.9247 40.7626 46.8574 37.8582C47.0932 37.5027 47.2363 37.2696 47.3135 37.074C47.3932 36.8716 47.4017 36.711 47.3828 36.5046C47.3134 35.7162 46.5365 35.1327 45.7637 35.2888H45.7627C45.5403 35.3354 45.369 35.4052 45.1963 35.5535C45.0282 35.6978 44.8623 35.9133 44.6416 36.24C42.6027 39.2541 41.3059 42.6875 40.959 45.9675L40.9023 46.6208C40.878 46.955 40.8538 49.2479 40.8418 51.7048L40.8223 56.1814L40.8213 56.28L40.9199 56.282L41.5898 56.2937L42.2451 56.2996C42.4787 56.2996 42.7085 56.2977 42.8779 56.2937L42.877 56.2927L43.4873 56.282L43.585 56.28V51.866Z" fill="#1D252D" stroke="#1D252D" stroke-width="0.2"/>
</svg>
