<svg width="56" height="56" viewBox="0 0 56 56" fill="none" xmlns="http://www.w3.org/2000/svg">
<path d="M53.54 32.2597C53.54 32.0973 53.54 31.9599 53.54 31.8349C53.54 29.4985 53.54 27.1497 53.54 24.8133C53.54 24.5009 53.44 24.4259 53.1402 24.401C51.8158 24.301 50.4914 24.1761 49.1546 24.0511C48.5923 24.0011 48.2425 23.6888 48.0676 23.0766C47.6303 21.5273 47.093 20.028 46.3434 18.6037C46.1935 18.3288 46.0435 18.054 45.8936 17.7916C45.4688 17.0169 45.4813 16.6671 46.0435 15.9924C46.8681 14.9929 47.7177 14.0184 48.5549 13.0313C48.6048 12.9814 48.6423 12.9189 48.6548 12.9064C46.8057 11.0448 44.969 9.19565 43.1324 7.33403C42.1204 8.19612 41.0959 9.05821 40.0714 9.9328C39.4217 10.4825 38.9969 10.545 38.2472 10.1202C36.598 9.17066 34.8613 8.4585 33.0122 7.97123C32.2751 7.78382 32.0002 7.44648 31.9252 6.69683C31.8128 5.39745 31.6878 4.09806 31.5754 2.78618C31.5629 2.54879 31.5129 2.46134 31.2505 2.46134C28.9017 2.46134 26.5403 2.46134 24.1914 2.46134C23.8291 2.46134 23.7041 2.57378 23.6791 2.9486C23.6042 4.19801 23.4792 5.45992 23.3793 6.70932C23.3293 7.37151 22.9919 7.78382 22.3423 7.94624C20.4182 8.42101 18.619 9.19565 16.9198 10.1952C16.3326 10.545 15.8079 10.4201 15.3081 9.99527C14.3335 9.15817 13.3465 8.34605 12.372 7.50895C12.1596 7.32154 12.0471 7.33403 11.8597 7.52144C10.3105 9.0957 8.74869 10.6575 7.19942 12.2067C6.57472 12.8314 6.57472 12.8314 7.16194 13.5061C7.84912 14.3057 8.53629 15.1178 9.22347 15.93C9.83568 16.6671 9.86067 16.967 9.39838 17.8166C9.06104 18.4413 8.74869 19.0785 8.42385 19.7032C8.06152 20.3779 7.38684 20.5903 6.74964 20.2529C6.22489 19.9655 5.975 19.3908 6.1999 18.8286C6.3998 18.3163 6.63719 17.8291 6.88707 17.3418C6.99952 17.1294 6.96204 17.0169 6.79961 16.8295C5.85006 15.7425 4.9255 14.6306 4.00094 13.5186C3.56365 12.9939 3.63861 12.3567 4.15087 11.8444C5.55021 10.4326 6.96204 9.02073 8.37387 7.6089C9.24846 6.72182 10.1355 5.84723 11.0101 4.96015C11.7098 4.26048 12.272 4.223 13.0342 4.8602C14.0462 5.72229 15.0707 6.58438 16.0827 7.45897C16.3201 7.67137 16.5075 7.69636 16.7949 7.53394C18.0693 6.82177 19.4186 6.28453 20.8305 5.87222C21.0179 5.82224 21.0554 5.74728 21.0679 5.57236C21.1803 4.12305 21.2928 2.67373 21.4177 1.21193C21.4802 0.462281 21.93 0.0624704 22.7546 0.0499763C23.6791 0.0249882 24.6037 0.0374823 25.5158 0.0374823C27.7522 0 30.0136 0 32.2626 0C32.475 0 32.6874 0.0249882 32.8873 0.0624704C33.462 0.174917 33.7993 0.499763 33.8618 1.08699C33.9743 2.16148 34.0617 3.24846 34.1492 4.32295C34.1866 4.71027 34.2116 5.09759 34.2366 5.47241C34.2366 5.6973 34.3616 5.78476 34.5615 5.87222C35.9358 6.43445 37.2977 6.99669 38.6595 7.57142C38.8719 7.65888 38.9969 7.62139 39.1593 7.49645C40.1338 6.65935 41.1084 5.83474 42.0954 5.01013C42.2578 4.87269 42.4202 4.73526 42.5952 4.62281C43.0574 4.31046 43.5447 4.29797 43.9695 4.67279C44.6192 5.26001 45.2439 5.89721 45.8686 6.52191C47.5428 8.19612 49.217 9.85783 50.9037 11.532C51.0037 11.632 51.1161 11.7444 51.2161 11.8569C51.7283 12.4441 51.7533 12.9939 51.2536 13.6061C50.3665 14.6806 49.4669 15.7425 48.5424 16.8045C48.3549 17.0294 48.3424 17.1669 48.4674 17.4417C49.0296 18.7161 49.5669 20.003 50.0791 21.2899C50.2041 21.6023 50.329 21.7397 50.6788 21.7647C52.0282 21.8647 53.3901 21.9771 54.7394 22.1145C55.639 22.2145 55.9888 22.6393 56.0013 23.5638C56.0013 24.6883 56.0013 25.8003 56.0013 26.9248C56.0013 28.9488 56.0013 30.9603 56.0013 32.9844C56.0013 33.1468 56.0013 33.3092 55.9763 33.4717C55.8764 34.1713 55.5141 34.5337 54.8019 34.6086C53.615 34.7211 52.4155 34.821 51.2286 34.9085C50.2416 34.9834 50.2915 34.9959 49.9292 35.9205C49.4794 37.0825 48.9547 38.2069 48.4549 39.3439C48.3549 39.5563 48.3674 39.7062 48.5174 39.8811C49.4169 40.9306 50.304 41.9926 51.2036 43.0421C51.7658 43.7043 51.7658 44.304 51.1411 44.9162C48.8797 47.1902 46.6183 49.4516 44.3568 51.713C43.5572 52.5126 43.0699 52.5126 42.1954 51.7755C41.2208 50.9509 40.2588 50.1388 39.2967 49.3017C39.0344 49.0768 38.822 49.0393 38.5096 49.2267C38.0723 49.4766 37.5975 49.689 37.1228 49.8514C36.5605 50.0388 35.9358 49.714 35.7109 49.1767C35.486 48.627 35.6734 47.9648 36.1982 47.6774C36.9853 47.2401 37.7849 46.8403 38.5721 46.428C38.9844 46.2156 39.4092 46.2531 39.759 46.5405C40.6586 47.2776 41.5457 48.0148 42.4202 48.7769C43.1699 49.4266 43.1574 49.4516 43.8696 48.7519C45.3938 47.2401 46.9056 45.7284 48.4174 44.2166C48.7673 43.8667 48.7423 43.8792 48.4174 43.5169C47.5803 42.5299 46.7432 41.5428 45.9186 40.5433C45.5438 40.081 45.5313 39.5938 45.8186 39.094C46.8307 37.3823 47.5678 35.5457 48.0801 33.6341C48.28 32.9094 48.6673 32.672 49.5669 32.6096C50.8663 32.5096 52.1656 32.3972 53.54 32.2847V32.2597Z" fill="#1D252D"/>
<path d="M27.9407 26.2873C27.7033 26.2873 27.5659 26.2873 27.4409 26.2873C24.9421 26.2873 22.4308 26.2873 19.932 26.2873C19.0449 26.2873 18.4827 25.6376 18.6451 24.813C18.7575 24.2132 19.2448 23.8634 20.0194 23.8634C20.7816 23.8634 21.5437 23.8634 22.2934 23.8634C25.0546 23.8634 27.8282 23.8634 30.5894 23.8634C30.6644 23.8634 30.7394 23.8634 30.8143 23.8634C31.7139 23.9009 32.1512 24.3632 32.1512 25.2627C32.1512 28.3238 32.1512 31.3973 32.1512 34.4584C32.1512 35.0581 32.1512 35.6578 32.1512 36.2575C32.1387 36.8323 31.8014 37.1821 31.2891 37.357C30.7893 37.5319 30.3021 37.357 30.0272 36.9572C29.8273 36.6698 29.7398 36.245 29.7398 35.8827C29.7149 33.9586 29.7273 32.047 29.7398 30.1229C29.7398 29.5482 29.7523 28.9735 29.7523 28.3988C29.7523 28.3238 29.7273 28.2613 29.7024 28.1239C29.5774 28.2113 29.49 28.2738 29.4275 28.3488C23.4678 34.296 17.5206 40.2556 11.5609 46.2153C10.399 47.3773 9.23704 48.5392 8.07509 49.7137C7.73775 50.0635 7.36293 50.3384 6.82568 50.2509C6.38839 50.1884 6.03855 49.9636 5.87613 49.5512C5.71371 49.1264 5.70121 48.6892 6.03855 48.3268C6.40088 47.927 6.80069 47.5397 7.18801 47.1524C12.3606 41.9798 17.5331 36.8073 22.6932 31.6347C24.3674 29.9605 26.0416 28.2863 27.7158 26.6121C27.7783 26.5496 27.8407 26.4622 27.9657 26.3122L27.9407 26.2873Z" fill="#1D252D"/>
<path d="M42.02 28.5369C41.9951 21.6652 37.4347 15.9179 30.9503 14.3561C25.4029 13.0317 19.5307 15.1807 16.1073 19.7911C15.8699 20.1034 15.5576 20.4158 15.2202 20.5907C14.7704 20.8281 14.2582 20.6407 13.9208 20.2283C13.596 19.8285 13.496 19.2663 13.8084 18.879C14.4956 18.0044 15.1703 17.0923 15.9574 16.3052C18.5686 13.7314 21.7172 12.2071 25.3404 11.7074C29.2886 11.1701 32.9993 11.9073 36.3727 13.9938C40.6832 16.655 43.3069 20.5157 44.1815 25.5258C44.8437 29.349 44.219 32.9848 42.3699 36.3957C41.133 38.6696 39.4588 40.5437 37.3473 42.0305C36.4977 42.6302 35.5356 42.3054 35.3232 41.3558C35.2108 40.8061 35.4482 40.3813 35.8855 40.069C37.0849 39.2319 38.1219 38.2323 39.009 37.0829C40.7207 34.8714 41.7077 32.3726 41.9451 29.5739C41.9826 29.1491 41.9951 28.7243 42.0076 28.5119L42.02 28.5369Z" fill="#1D252D"/>
<path d="M27.478 45.4281C27.328 45.4281 27.1906 45.4281 27.0407 45.4281C25.5414 45.4281 24.0546 45.4281 22.5553 45.4281C21.6557 45.4281 21.081 44.5785 21.4058 43.7789C21.5683 43.3666 21.8806 43.0917 22.3179 43.0542C22.9426 43.0167 23.5673 43.0167 24.1795 43.0167C26.1786 43.0167 28.1651 43.0167 30.1642 43.0167C30.3891 43.0167 30.614 43.0417 30.8389 43.0667C31.3137 43.1292 31.7135 43.5165 31.7759 43.9913C31.8009 44.1662 31.8009 44.3411 31.8009 44.516C31.8009 47.0148 31.8009 49.5261 31.8134 52.025C31.8134 52.8746 31.5385 53.2994 30.8639 53.4618C30.1142 53.6492 29.4021 53.1244 29.3896 52.3498C29.3771 50.8005 29.3896 49.2638 29.3896 47.7145C29.3896 47.5896 29.3896 47.4521 29.3646 47.2272C29.2021 47.3647 29.1022 47.4271 29.0147 47.5021C26.3785 50.1384 23.7547 52.7746 21.1185 55.4109C20.8436 55.6857 20.5687 55.9731 20.1189 55.9981C19.5817 56.0231 19.1944 55.8107 18.9445 55.3609C18.6946 54.9361 18.7696 54.3614 19.1194 53.974C19.4817 53.5617 19.8816 53.1869 20.2689 52.7996C22.5928 50.4757 24.9167 48.1518 27.2406 45.8154C27.328 45.7154 27.4155 45.6155 27.503 45.5155C27.4905 45.4781 27.478 45.4531 27.453 45.4156L27.478 45.4281Z" fill="#1D252D"/>
<path d="M10.3719 28.348C10.2845 28.498 10.2095 28.6729 10.0971 28.7853C7.44831 31.4466 4.79956 34.0953 2.15081 36.7441C1.5511 37.3438 0.713995 37.3188 0.251713 36.7191C-0.110615 36.2443 -0.0856269 35.5696 0.351666 35.1198C1.31371 34.1453 2.27576 33.1707 3.25029 32.2087C4.99947 30.4595 6.76113 28.7104 8.51031 26.9487C8.59776 26.8612 8.64774 26.7613 8.77268 26.6113C8.48532 26.6113 8.27292 26.6113 8.07301 26.6113C6.74864 26.6113 5.43676 26.6113 4.11239 26.6113C3.83752 26.6113 3.55015 26.6113 3.30027 26.5364C2.73804 26.3615 2.42568 25.8117 2.51314 25.2495C2.6131 24.6248 3.05039 24.225 3.68759 24.225C6.33633 24.225 8.99757 24.2 11.6463 24.2125C12.5709 24.2125 12.9832 24.6498 12.9957 25.6118C13.0082 27.0986 12.9957 28.5729 12.9957 30.0597C12.9957 31.1842 13.0082 32.3087 12.9957 33.4206C12.9957 34.1578 12.5209 34.645 11.8337 34.67C11.0966 34.695 10.5718 34.1828 10.5593 33.4081C10.5593 31.8589 10.5593 30.3221 10.5593 28.7728C10.5593 28.6729 10.5593 28.5854 10.5593 28.4855C10.4969 28.4355 10.4344 28.398 10.3719 28.348Z" fill="#1D252D"/>
</svg>
